# xmcd
#
# Track frame offsets:
#	150
#	20373
#	41017
#	59568
#	81917
#	104239
#	125213
#	148903
#	171352
#	191435
#	217873
#	241554
#
# Disc length: 3494 seconds
#
# Revision: 3
# Processed by: cddbd v1.5.2PL0 Copyright (c) Steve Scherf et al.
# Submitted via: audiograbber 1.83.01
#
DISCID=b10da40c
DTITLE=Simple Minds - Acoustic
DYEAR=2016
DGENRE=Folk
TTITLE0=The American
TTITLE1=Promised You A Miracle [featuring KT Tunstall]
TTITLE2=Glittering Prize
TTITLE3=See The Lights
TTITLE4=New Gold Dream (81-82-83-84)
TTITLE5=Someone Somewhere In Summertime
TTITLE6=Waterfront
TTITLE7=Sanctify Yourself
TTITLE8=Chelsea Girl
TTITLE9=Alive And Kicking
TTITLE10=Don't You (Forget About Me)
TTITLE11=Long Black Train
EXTD=
EXTT0=
EXTT1=
EXTT2=
EXTT3=
EXTT4=
EXTT5=
EXTT6=
EXTT7=
EXTT8=
EXTT9=
EXTT10=
EXTT11=
PLAYORDER=
